<svg
  xmlns="http://www.w3.org/2000/svg"
  width="450"
  height="512"
  viewBox="0 0 450 512"
  stroke="#18150E"
  stroke-width="4"
  fill="None"
>

  <circle
    name="Body"
    cx="186"
    cy="326"
    r="184"
    fill="#FCDD6C"
  />

  <path 
    name="Body Shine"
    d="
      M 129.567 170.951
      A 165 165 0 0 0 30.951 269.567
    "
    stroke="#F4F2E3"
    stroke-width="8"
    stroke-linecap="round"
    fill="None"
  />

  <path 
    name="Nub Bottom"
    d="
      M 99.617 488.462
      A 184 184 0 0 1 23.538 412.383
      A 5 5 0 0 0 14.124 414.817
      C 14.417 431.639 11.008 450.973 3.993 469.249
      A 30 30 0 0 0 42.751 508.007
      C 61.027 500.992 80.361 497.583 97.183 497.876
      A 5 5 0 0 0 99.617 488.462
    "
    fill="#FCDD6C"
  />
  
  <path 
    name="Nub Top"
    d="
      M 348.462 239.617
      A 184 184 0 0 0 272.383 163.538
      A 5 5 0 0 1 274.817 154.124
      C 291.639 154.417 310.973 151.008 329.249 143.993
      A 5 5 0 0 1 335.371 146.16
      C 341.371 154.821 357.179 171.629 365.84 176.629
      A 5 5 0 0 1 368.007 182.751
      C 360.992 201.027 357.583 220.361 357.876 237.183
      A 5 5 0 0 1 348.462 239.617
    "
    fill="#FCDD6C"
  />

  <path
    name="Leaf Back"
    d="
      M 386.851 46.041
      A 99.65 99.65 0 0 1 389.946 99.739
      A 100 100 0 0 0 447.192 37.524
      A 10 10 0 0 0 436.305 24.591
      A 100 100 0 0 0 386.851 46.041
    "
    fill="#5AB97E"
  />
  
  <path
    name="Leaf Front"
    d="
      M 349.5 148.358
      A 10 10 0 0 0 363.59 162.552
      A 30 30 0 0 0 372.429 141.287
      A 10 10 0 0 1 374.237 135.551
      A 99.65 99.65 0 0 0 359.626 4.646
      A 10 10 0 0 0 343.082 10.153
      A 250 250 0 0 0 351.895 138.064
      A 10 10 0 0 1 349.5 148.358
    "
    fill="#5AB97E"
  />

</svg>